<svg data-v-fde0c5aa="" xmlns="http://www.w3.org/2000/svg" viewBox="0 0 300 300" class="font"><!----><defs data-v-fde0c5aa=""><!----></defs><rect data-v-fde0c5aa="" fill="#E7F3FC" x="0" y="0" width="300px" height="300px" class="logo-background-square"></rect><defs data-v-fde0c5aa=""><linearGradient data-v-fde0c5aa="" gradientTransform="rotate(25)" id="10641ea1-33b7-4680-a82c-16e666de4ca3" x1="0%" y1="0%" x2="100%" y2="0%"><stop data-v-fde0c5aa="" offset="0%" stop-color="#007DE8" stop-opacity="1"></stop><stop data-v-fde0c5aa="" offset="100%" stop-color="#A1C3DB" stop-opacity="1"></stop></linearGradient></defs><g data-v-fde0c5aa="" id="037a3b91-8a38-492c-a4ff-a280babebbee" fill="url(#10641ea1-33b7-4680-a82c-16e666de4ca3)" transform="matrix(4.0268457875406725,0,0,4.0268457875406725,39.40939591435783,117.1054066178832)"><path d="M6.65 4.65L6.65 4.65L6.65 4.65Q6.55 4.68 6.31 4.70L6.31 4.70L6.31 4.70Q6.06 4.73 5.73 4.75L5.73 4.75L5.73 4.75Q5.39 4.77 4.97 4.80L4.97 4.80L4.97 4.80Q4.55 4.83 4.10 4.84L4.10 4.84L4.10 4.84Q4.09 5.31 4.07 5.86L4.07 5.86L4.07 5.86Q4.06 6.41 4.05 6.99L4.05 6.99L4.05 6.99Q4.03 7.56 4.03 8.11L4.03 8.11L4.03 8.11Q4.02 8.67 4.02 9.10L4.02 9.10L4.02 9.10Q4.02 9.65 4.03 10.19L4.03 10.19L4.03 10.19Q4.05 10.74 4.06 11.28L4.06 11.28L4.06 11.28Q4.06 11.47 4.08 11.66L4.08 11.66L4.08 11.66Q4.10 11.84 4.09 12.03L4.09 12.03L4.09 12.03Q4.06 12.21 4.08 12.40L4.08 12.40L4.08 12.40Q4.10 12.59 4.05 12.75L4.05 12.75L4.05 12.75Q4.02 12.77 3.91 12.80L3.91 12.80L3.91 12.80Q3.81 12.84 3.69 12.87L3.69 12.87L3.69 12.87Q3.57 12.89 3.46 12.92L3.46 12.92L3.46 12.92Q3.36 12.95 3.33 12.95L3.33 12.95L3.33 12.95Q3.12 13.03 2.91 12.94L2.91 12.94L2.91 12.94Q2.70 12.84 2.67 12.77L2.67 12.77L2.67 12.77Q2.56 12.53 2.51 11.96L2.51 11.96L2.51 11.96Q2.45 11.40 2.44 10.65L2.44 10.65L2.44 10.65Q2.44 9.90 2.46 9.04L2.46 9.04L2.46 9.04Q2.48 8.19 2.51 7.40L2.51 7.40L2.51 7.40Q2.55 6.61 2.59 5.94L2.59 5.94L2.59 5.94Q2.63 5.28 2.66 4.90L2.66 4.90L2.66 4.90Q1.89 4.93 1.27 4.94L1.27 4.94L1.27 4.94Q0.64 4.96 0.41 4.97L0.41 4.97L0.41 4.97Q0.18 4.79 0.16 4.50L0.16 4.50L0.16 4.50Q0.14 4.21 0.15 3.79L0.15 3.79L0.15 3.79Q0.24 3.68 0.62 3.62L0.62 3.62L0.62 3.62Q0.99 3.56 1.45 3.53L1.45 3.53L1.45 3.53Q1.90 3.50 2.33 3.49L2.33 3.49L2.33 3.49Q2.76 3.49 2.93 3.47L2.93 3.47L2.93 3.47Q3.26 3.46 3.75 3.43L3.75 3.43L3.75 3.43Q4.23 3.40 4.74 3.39L4.74 3.39L4.74 3.39Q5.25 3.37 5.73 3.37L5.73 3.37L5.73 3.37Q6.22 3.37 6.54 3.40L6.54 3.40L6.54 3.40Q6.62 3.47 6.66 3.67L6.66 3.67L6.66 3.67Q6.69 3.86 6.70 4.07L6.70 4.07L6.70 4.07Q6.71 4.28 6.69 4.46L6.69 4.46L6.69 4.46Q6.68 4.63 6.65 4.65ZM9.07 6.76L9.07 6.76L9.07 6.76Q9.49 6.73 9.93 6.82L9.93 6.82L9.93 6.82Q10.37 6.90 10.74 7.15L10.74 7.15L10.74 7.15Q11.34 7.56 11.65 8.16L11.65 8.16L11.65 8.16Q11.96 8.76 11.98 9.41L11.98 9.41L11.98 9.41Q12.01 10.07 11.79 10.72L11.79 10.72L11.79 10.72Q11.58 11.37 11.15 11.87L11.15 11.87L11.15 11.87Q10.72 12.38 10.10 12.68L10.10 12.68L10.10 12.68Q9.48 12.98 8.69 12.94L8.69 12.94L8.69 12.94Q8.37 12.92 8.06 12.81L8.06 12.81L8.06 12.81Q7.42 12.59 6.99 12.19L6.99 12.19L6.99 12.19Q6.57 11.79 6.34 11.28L6.34 11.28L6.34 11.28Q6.12 10.77 6.10 10.20L6.10 10.20L6.10 10.20Q6.08 9.63 6.25 9.09L6.25 9.09L6.25 9.09Q6.43 8.54 6.79 8.06L6.79 8.06L6.79 8.06Q7.15 7.59 7.71 7.25L7.71 7.25L7.71 7.25Q7.87 7.15 8.06 7.05L8.06 7.05L8.06 7.05Q8.25 6.94 8.44 6.87L8.44 6.87L8.44 6.87Q8.60 6.82 8.76 6.80L8.76 6.80L8.76 6.80Q8.93 6.78 9.07 6.76ZM10.78 9.45L10.78 9.45L10.78 9.45Q10.78 9.00 10.58 8.66L10.58 8.66L10.58 8.66Q10.39 8.32 10.07 8.12L10.07 8.12L10.07 8.12Q9.76 7.92 9.37 7.88L9.37 7.88L9.37 7.88Q8.97 7.84 8.60 7.99L8.60 7.99L8.60 7.99Q8.22 8.15 7.90 8.50L7.90 8.50L7.90 8.50Q7.57 8.85 7.39 9.44L7.39 9.44L7.39 9.44Q7.35 9.58 7.31 9.71L7.31 9.71L7.31 9.71Q7.27 9.84 7.27 9.98L7.27 9.98L7.27 9.98Q7.27 10.26 7.31 10.54L7.31 10.54L7.31 10.54Q7.35 10.81 7.49 11.05L7.49 11.05L7.49 11.05Q7.74 11.48 8.28 11.60L8.28 11.60L8.28 11.60Q8.82 11.72 9.38 11.52L9.38 11.52L9.38 11.52Q9.94 11.31 10.36 10.79L10.36 10.79L10.36 10.79Q10.78 10.28 10.78 9.45ZM17.21 8.86L17.21 8.86L17.21 8.86Q17.11 8.89 16.80 8.92L16.80 8.92L16.80 8.92Q16.49 8.95 16.09 8.96L16.09 8.96L16.09 8.96Q15.68 8.97 15.22 8.99L15.22 8.99L15.22 8.99Q14.76 9.00 14.34 9.01L14.34 9.01L14.34 9.01Q13.92 9.02 13.59 9.02L13.59 9.02L13.59 9.02Q13.26 9.03 13.10 9.03L13.10 9.03L13.10 9.03Q12.95 8.88 12.93 8.62L12.93 8.62L12.93 8.62Q12.91 8.37 12.94 8.01L12.94 8.01L12.94 8.01Q12.99 7.91 13.26 7.87L13.26 7.87L13.26 7.87Q13.52 7.83 13.85 7.82L13.85 7.82L13.85 7.82Q14.17 7.81 14.46 7.81L14.46 7.81L14.46 7.81Q14.76 7.81 14.88 7.81L14.88 7.81L14.88 7.81Q15.12 7.81 15.41 7.80L15.41 7.80L15.41 7.80Q15.71 7.78 16.02 7.77L16.02 7.77L16.02 7.77Q16.32 7.76 16.61 7.76L16.61 7.76L16.61 7.76Q16.90 7.77 17.14 7.80L17.14 7.80L17.14 7.80Q17.19 7.85 17.22 8.02L17.22 8.02L17.22 8.02Q17.25 8.19 17.25 8.37L17.25 8.37L17.25 8.37Q17.25 8.55 17.23 8.70L17.23 8.70L17.23 8.70Q17.22 8.85 17.21 8.86ZM23.59 12.45L23.59 12.45L23.59 12.45Q23.52 12.49 23.42 12.51L23.42 12.51L23.42 12.51Q23.32 12.53 23.25 12.56L23.25 12.56L23.25 12.56Q22.92 12.64 22.76 12.66L22.76 12.66L22.76 12.66Q22.61 12.67 22.55 12.59L22.55 12.59L22.55 12.59Q22.50 12.52 22.50 12.34L22.50 12.34L22.50 12.34Q22.50 12.17 22.47 11.89L22.47 11.89L22.47 11.89Q22.34 11.98 22.25 12.05L22.25 12.05L22.25 12.05Q22.15 12.12 22.06 12.18L22.06 12.18L22.06 12.18Q21.97 12.24 21.86 12.29L21.86 12.29L21.86 12.29Q21.76 12.33 21.62 12.39L21.62 12.39L21.62 12.39Q21.56 12.42 21.46 12.44L21.46 12.44L21.46 12.44Q21.36 12.46 21.26 12.49L21.26 12.49L21.26 12.49Q21.15 12.52 21.05 12.54L21.05 12.54L21.05 12.54Q20.94 12.56 20.89 12.57L20.89 12.57L20.89 12.57Q20.65 12.64 20.42 12.61L20.42 12.61L20.42 12.61Q20.19 12.59 19.95 12.53L19.95 12.53L19.95 12.53Q19.15 12.33 18.75 11.79L18.75 11.79L18.75 11.79Q18.35 11.24 18.29 10.56L18.29 10.56L18.29 10.56Q18.23 9.87 18.49 9.17L18.49 9.17L18.49 9.17Q18.75 8.47 19.28 7.95L19.28 7.95L19.28 7.95Q19.73 7.53 20.27 7.27L20.27 7.27L20.27 7.27Q20.80 7.01 21.43 7.01L21.43 7.01L21.43 7.01Q21.53 7.01 21.66 7.01L21.66 7.01L21.66 7.01Q21.80 7.01 21.88 7.04L21.88 7.04L21.88 7.04Q22.08 7.08 22.18 7.12L22.18 7.12L22.18 7.12Q22.29 7.15 22.48 7.22L22.48 7.22L22.48 7.22Q22.55 6.90 22.53 6.57L22.53 6.57L22.53 6.57Q22.50 6.24 22.51 5.92L22.51 5.92L22.51 5.92Q22.53 5.46 22.53 4.98L22.53 4.98L22.53 4.98Q22.53 4.49 22.60 4.05L22.60 4.05L22.60 4.05Q22.62 3.89 22.63 3.76L22.63 3.76L22.63 3.76Q22.64 3.63 22.61 3.47L22.61 3.47L23.17 3.46L23.51 3.46L23.51 3.46Q23.56 3.46 23.62 3.47L23.62 3.47L23.62 3.47Q23.67 3.72 23.69 4.35L23.69 4.35L23.69 4.35Q23.70 4.97 23.69 5.69L23.69 5.69L23.69 5.69Q23.67 6.41 23.66 7.08L23.66 7.08L23.66 7.08Q23.65 7.74 23.65 8.08L23.65 8.08L23.65 8.08Q23.65 8.61 23.67 9.16L23.67 9.16L23.67 9.16Q23.69 9.72 23.70 10.28L23.70 10.28L23.70 10.28Q23.72 10.85 23.70 11.40L23.70 11.40L23.70 11.40Q23.67 11.94 23.59 12.45ZM22.40 8.32L22.40 8.32L22.40 8.32Q22.22 8.19 22.03 8.16L22.03 8.16L22.03 8.16Q21.84 8.13 21.63 8.15L21.63 8.15L21.63 8.15Q21.24 8.18 20.87 8.32L20.87 8.32L20.87 8.32Q20.50 8.46 20.20 8.71L20.20 8.71L20.20 8.71Q19.89 8.96 19.70 9.30L19.70 9.30L19.70 9.30Q19.52 9.65 19.49 10.05L19.49 10.05L19.49 10.05Q19.46 10.29 19.50 10.49L19.50 10.49L19.50 10.49Q19.54 10.70 19.68 10.89L19.68 10.89L19.68 10.89Q19.92 11.23 20.31 11.30L20.31 11.30L20.31 11.30Q20.45 11.33 20.77 11.31L20.77 11.31L20.77 11.31Q21.08 11.30 21.43 11.23L21.43 11.23L21.43 11.23Q21.77 11.16 22.04 11.02L22.04 11.02L22.04 11.02Q22.32 10.88 22.37 10.67L22.37 10.67L22.37 10.67Q22.41 10.49 22.45 10.18L22.45 10.18L22.45 10.18Q22.48 9.87 22.49 9.53L22.49 9.53L22.49 9.53Q22.50 9.18 22.48 8.86L22.48 8.86L22.48 8.86Q22.46 8.54 22.40 8.32ZM27.82 6.76L27.82 6.76L27.82 6.76Q28.24 6.73 28.68 6.82L28.68 6.82L28.68 6.82Q29.12 6.90 29.48 7.15L29.48 7.15L29.48 7.15Q30.09 7.56 30.39 8.16L30.39 8.16L30.39 8.16Q30.70 8.76 30.73 9.41L30.73 9.41L30.73 9.41Q30.76 10.07 30.54 10.72L30.54 10.72L30.54 10.72Q30.32 11.37 29.90 11.87L29.90 11.87L29.90 11.87Q29.47 12.38 28.85 12.68L28.85 12.68L28.85 12.68Q28.22 12.98 27.44 12.94L27.44 12.94L27.44 12.94Q27.12 12.92 26.81 12.81L26.81 12.81L26.81 12.81Q26.17 12.59 25.74 12.19L25.74 12.19L25.74 12.19Q25.31 11.79 25.09 11.28L25.09 11.28L25.09 11.28Q24.86 10.77 24.84 10.20L24.84 10.20L24.84 10.20Q24.82 9.63 25.00 9.09L25.00 9.09L25.00 9.09Q25.17 8.54 25.54 8.06L25.54 8.06L25.54 8.06Q25.90 7.59 26.46 7.25L26.46 7.25L26.46 7.25Q26.61 7.15 26.80 7.05L26.80 7.05L26.80 7.05Q26.99 6.94 27.19 6.87L27.19 6.87L27.19 6.87Q27.34 6.82 27.51 6.80L27.51 6.80L27.51 6.80Q27.68 6.78 27.82 6.76ZM29.53 9.45L29.53 9.45L29.53 9.45Q29.53 9.00 29.33 8.66L29.33 8.66L29.33 8.66Q29.13 8.32 28.82 8.12L28.82 8.12L28.82 8.12Q28.50 7.92 28.11 7.88L28.11 7.88L28.11 7.88Q27.72 7.84 27.34 7.99L27.34 7.99L27.34 7.99Q26.96 8.15 26.64 8.50L26.64 8.50L26.64 8.50Q26.32 8.85 26.14 9.44L26.14 9.44L26.14 9.44Q26.10 9.58 26.05 9.71L26.05 9.71L26.05 9.71Q26.01 9.84 26.01 9.98L26.01 9.98L26.01 9.98Q26.01 10.26 26.05 10.54L26.05 10.54L26.05 10.54Q26.10 10.81 26.24 11.05L26.24 11.05L26.24 11.05Q26.49 11.48 27.03 11.60L27.03 11.60L27.03 11.60Q27.57 11.72 28.13 11.52L28.13 11.52L28.13 11.52Q28.69 11.31 29.11 10.79L29.11 10.79L29.11 10.79Q29.53 10.28 29.53 9.45ZM35.87 10.40L35.85 10.39L35.85 10.39Q35.87 9.11 35.98 7.85L35.98 7.85L35.98 7.85Q36.09 6.59 36.20 5.32L36.20 5.32L36.20 5.32Q36.25 4.91 36.27 4.53L36.27 4.53L36.27 4.53Q36.30 4.14 36.39 3.75L36.39 3.75L36.39 3.75Q36.39 3.58 36.38 3.52L36.38 3.52L36.38 3.52Q36.37 3.46 36.38 3.44L36.38 3.44L36.38 3.44Q36.39 3.42 36.40 3.41L36.40 3.41L36.40 3.41Q36.41 3.40 36.44 3.35L36.44 3.35L36.44 3.35Q36.46 3.35 36.66 3.35L36.66 3.35L36.66 3.35Q36.86 3.36 37.09 3.37L37.09 3.37L37.09 3.37Q37.32 3.37 37.52 3.38L37.52 3.38L37.52 3.38Q37.72 3.39 37.74 3.39L37.74 3.39L37.74 3.39Q37.88 3.51 37.84 3.75L37.84 3.75L37.84 3.75Q37.80 3.99 37.79 4.17L37.79 4.17L37.79 4.17Q37.77 4.45 37.72 5.05L37.72 5.05L37.72 5.05Q37.67 5.66 37.60 6.41L37.60 6.41L37.60 6.41Q37.53 7.15 37.48 7.98L37.48 7.98L37.48 7.98Q37.42 8.81 37.39 9.53L37.39 9.53L37.39 9.53Q37.37 10.26 37.39 10.82L37.39 10.82L37.39 10.82Q37.42 11.37 37.53 11.58L37.53 11.58L37.53 11.58Q37.88 11.58 38.28 11.55L38.28 11.55L38.28 11.55Q38.68 11.52 39.08 11.49L39.08 11.49L39.08 11.49Q39.48 11.47 39.87 11.46L39.87 11.46L39.87 11.46Q40.25 11.45 40.59 11.51L40.59 11.51L40.64 11.58L40.64 11.58Q40.75 11.63 40.81 11.84L40.81 11.84L40.81 11.84Q40.87 12.04 40.87 12.26L40.87 12.26L40.87 12.26Q40.87 12.49 40.80 12.67L40.80 12.67L40.80 12.67Q40.74 12.85 40.60 12.85L40.60 12.85L40.60 12.85Q40.49 12.87 40.39 12.85L40.39 12.85L40.39 12.85Q40.29 12.84 40.18 12.82L40.18 12.82L40.18 12.82Q39.77 12.89 39.33 12.90L39.33 12.90L39.33 12.90Q38.88 12.91 38.46 12.94L38.46 12.94L38.46 12.94Q38.22 12.95 37.93 12.95L37.93 12.95L37.93 12.95Q37.65 12.95 37.35 12.94L37.35 12.94L37.35 12.94Q37.06 12.94 36.76 12.94L36.76 12.94L36.76 12.94Q36.47 12.94 36.25 12.95L36.25 12.95L36.25 12.95Q36.22 12.92 36.15 12.92L36.15 12.92L36.15 12.92Q36.08 12.91 36.00 12.91L36.00 12.91L36.00 12.91Q35.92 12.91 35.86 12.90L35.86 12.90L35.86 12.90Q35.80 12.89 35.78 12.85L35.78 12.85L35.78 12.85Q35.78 12.75 35.80 12.40L35.80 12.40L35.80 12.40Q35.81 12.04 35.83 11.63L35.83 11.63L35.83 11.63Q35.84 11.21 35.85 10.86L35.85 10.86L35.85 10.86Q35.87 10.51 35.87 10.40L35.87 10.40ZM42.85 4.93L42.85 4.93L42.85 4.93Q43.12 5.07 43.21 5.31L43.21 5.31L43.21 5.31Q43.30 5.54 43.25 5.79L43.25 5.79L43.25 5.79Q43.19 6.03 43.02 6.22L43.02 6.22L43.02 6.22Q42.84 6.41 42.57 6.45L42.57 6.45L42.57 6.45Q42.20 6.51 41.97 6.32L41.97 6.32L41.97 6.32Q41.73 6.13 41.69 5.86L41.69 5.86L41.69 5.86Q41.64 5.59 41.77 5.30L41.77 5.30L41.77 5.30Q41.90 5.01 42.27 4.86L42.27 4.86L42.27 4.86Q42.46 4.77 42.60 4.82L42.60 4.82L42.60 4.82Q42.74 4.87 42.85 4.93ZM41.90 8.22L41.90 8.22L41.90 8.22Q41.90 8.09 41.92 7.88L41.92 7.88L41.92 7.88Q41.93 7.66 41.94 7.57L41.94 7.57L41.94 7.57Q42.03 7.57 42.24 7.55L42.24 7.55L42.24 7.55Q42.46 7.52 42.55 7.55L42.55 7.55L42.55 7.55Q42.69 7.56 42.83 7.60L42.83 7.60L42.83 7.60Q42.97 7.64 43.08 7.66L43.08 7.66L43.08 7.66Q43.11 7.78 43.12 8.16L43.12 8.16L43.12 8.16Q43.13 8.53 43.13 9.02L43.13 9.02L43.13 9.02Q43.13 9.51 43.13 10.06L43.13 10.06L43.13 10.06Q43.12 10.61 43.11 11.11L43.11 11.11L43.11 11.11Q43.09 11.61 43.08 11.98L43.08 11.98L43.08 11.98Q43.06 12.35 43.05 12.47L43.05 12.47L43.05 12.47Q43.04 12.60 42.86 12.65L42.86 12.65L42.86 12.65Q42.69 12.70 42.48 12.71L42.48 12.71L42.48 12.71Q42.27 12.71 42.07 12.69L42.07 12.69L42.07 12.69Q41.87 12.67 41.82 12.67L41.82 12.67L41.82 12.67Q41.82 12.54 41.83 12.20L41.83 12.20L41.83 12.20Q41.83 11.86 41.85 11.40L41.85 11.40L41.85 11.40Q41.86 10.93 41.87 10.42L41.87 10.42L41.87 10.42Q41.87 9.91 41.89 9.46L41.89 9.46L41.89 9.46Q41.90 9.00 41.90 8.67L41.90 8.67L41.90 8.67Q41.90 8.33 41.90 8.22ZM48.93 10.05L48.93 10.05L48.93 10.05Q49.17 10.22 49.22 10.38L49.22 10.38L49.22 10.38Q49.27 10.54 49.32 10.81L49.32 10.81L49.32 10.81Q49.41 11.23 49.29 11.56L49.29 11.56L49.29 11.56Q49.17 11.89 48.90 12.12L48.90 12.12L48.90 12.12Q48.64 12.36 48.27 12.53L48.27 12.53L48.27 12.53Q47.91 12.70 47.52 12.79L47.52 12.79L47.52 12.79Q47.12 12.88 46.73 12.92L46.73 12.92L46.73 12.92Q46.34 12.96 46.03 12.95L46.03 12.95L46.03 12.95Q45.54 12.92 45.11 12.76L45.11 12.76L45.11 12.76Q44.67 12.60 44.25 12.36L44.25 12.36L44.25 12.36Q44.30 12.24 44.32 12.07L44.32 12.07L44.32 12.07Q44.35 11.90 44.39 11.72L44.39 11.72L44.39 11.72Q44.44 11.55 44.51 11.40L44.51 11.40L44.51 11.40Q44.58 11.24 44.69 11.13L44.69 11.13L44.90 11.30L44.90 11.30Q45.00 11.40 45.15 11.51L45.15 11.51L45.15 11.51Q45.30 11.62 45.48 11.71L45.48 11.71L45.48 11.71Q45.65 11.80 45.83 11.86L45.83 11.86L45.83 11.86Q46.00 11.91 46.14 11.91L46.14 11.91L46.14 11.91Q47.03 11.94 47.54 11.71L47.54 11.71L47.54 11.71Q48.05 11.48 48.03 11.10L48.03 11.10L48.03 11.10Q48.03 10.93 47.87 10.82L47.87 10.82L47.87 10.82Q47.70 10.71 47.59 10.65L47.59 10.65L47.59 10.65Q47.21 10.49 46.71 10.40L46.71 10.40L46.71 10.40Q46.21 10.32 45.78 10.16L45.78 10.16L45.78 10.16Q45.35 10.01 45.05 9.70L45.05 9.70L45.05 9.70Q44.74 9.39 44.74 8.76L44.74 8.76L44.74 8.76Q44.74 8.36 44.95 8.03L44.95 8.03L44.95 8.03Q45.16 7.70 45.51 7.45L45.51 7.45L45.51 7.45Q45.85 7.20 46.28 7.03L46.28 7.03L46.28 7.03Q46.72 6.86 47.17 6.77L47.17 6.77L47.17 6.77Q47.61 6.68 48.03 6.69L48.03 6.69L48.03 6.69Q48.45 6.69 48.78 6.79L48.78 6.79L48.78 6.79Q48.85 6.82 48.97 6.86L48.97 6.86L48.97 6.86Q49.10 6.90 49.17 6.94L49.17 6.94L49.17 6.94Q49.22 7.10 49.15 7.20L49.15 7.20L49.15 7.20Q49.08 7.31 49.06 7.46L49.06 7.46L49.06 7.46Q49.03 7.49 49.01 7.56L49.01 7.56L49.01 7.56Q49 7.63 48.99 7.71L48.99 7.71L48.99 7.71Q48.97 7.78 48.96 7.85L48.96 7.85L48.96 7.85Q48.96 7.92 48.93 7.92L48.93 7.92L48.93 7.92Q48.79 7.94 48.64 7.91L48.64 7.91L48.64 7.91Q48.50 7.88 48.34 7.87L48.34 7.87L48.34 7.87Q48.03 7.84 47.68 7.85L47.68 7.85L47.68 7.85Q47.33 7.85 47.00 7.94L47.00 7.94L47.00 7.94Q46.68 8.02 46.40 8.20L46.40 8.20L46.40 8.20Q46.12 8.39 45.96 8.71L45.96 8.71L45.95 8.74L45.95 8.74Q45.96 8.88 46.05 9.00L46.05 9.00L46.05 9.00Q46.14 9.11 46.28 9.20L46.28 9.20L46.28 9.20Q46.41 9.28 46.55 9.34L46.55 9.34L46.55 9.34Q46.69 9.39 46.82 9.41L46.82 9.41L46.82 9.41Q47.14 9.45 47.46 9.51L47.46 9.51L47.46 9.51Q47.78 9.58 48.07 9.67L48.07 9.67L48.07 9.67Q48.36 9.76 48.58 9.86L48.58 9.86L48.58 9.86Q48.80 9.95 48.93 10.05ZM54.35 8.05L54.35 8.05L54.35 8.05Q54.19 8.09 53.64 8.11L53.64 8.11L53.64 8.11Q53.09 8.13 52.42 8.15L52.42 8.15L52.42 8.15Q52.40 8.72 52.39 9.28L52.39 9.28L52.39 9.28Q52.39 9.84 52.36 10.47L52.36 10.47L52.36 10.47Q52.35 10.85 52.49 11.09L52.49 11.09L52.49 11.09Q52.64 11.33 52.99 11.52L52.99 11.52L52.99 11.52Q53.14 11.61 53.40 11.63L53.40 11.63L53.40 11.63Q53.66 11.66 53.86 11.45L53.86 11.45L53.86 11.45Q54.04 11.35 54.20 11.38L54.20 11.38L54.20 11.38Q54.36 11.41 54.49 11.51L54.49 11.51L54.49 11.51Q54.61 11.61 54.69 11.72L54.69 11.72L54.69 11.72Q54.77 11.83 54.78 11.90L54.78 11.90L54.78 11.90Q54.61 12.24 54.46 12.41L54.46 12.41L54.46 12.41Q54.31 12.59 54.14 12.66L54.14 12.66L54.14 12.66Q53.97 12.74 53.77 12.75L53.77 12.75L53.77 12.75Q53.56 12.75 53.30 12.75L53.30 12.75L53.30 12.75Q52.92 12.74 52.67 12.68L52.67 12.68L52.67 12.68Q52.43 12.61 52.15 12.39L52.15 12.39L52.15 12.39Q51.69 12.01 51.48 11.67L51.48 11.67L51.48 11.67Q51.27 11.33 51.19 10.96L51.19 10.96L51.19 10.96Q51.11 10.58 51.13 10.15L51.13 10.15L51.13 10.15Q51.16 9.72 51.18 9.17L51.18 9.17L51.18 9.17Q51.20 8.93 51.20 8.68L51.20 8.68L51.20 8.68Q51.21 8.43 51.21 8.16L51.21 8.16L51.21 8.16Q50.89 8.18 50.63 8.18L50.63 8.18L50.63 8.18Q50.37 8.18 50.25 8.18L50.25 8.18L50.25 8.18Q50.09 8.02 50.08 7.77L50.08 7.77L50.08 7.77Q50.06 7.52 50.09 7.15L50.09 7.15L50.09 7.15Q50.16 7.06 50.52 7.01L50.52 7.01L50.52 7.01Q50.88 6.97 51.25 6.97L51.25 6.97L51.25 6.97Q51.27 6.73 51.27 6.50L51.27 6.50L51.27 6.50Q51.28 6.26 51.30 6.03L51.30 6.03L51.30 6.03Q51.31 5.66 51.31 5.23L51.31 5.23L51.31 5.23Q51.31 4.80 51.42 4.44L51.42 4.44L51.42 4.44Q51.53 4.41 51.67 4.37L51.67 4.37L51.67 4.37Q51.81 4.33 51.95 4.30L51.95 4.30L51.95 4.30Q52.04 4.27 52.25 4.29L52.25 4.29L52.25 4.29Q52.47 4.31 52.56 4.31L52.56 4.31L52.56 4.31Q52.56 4.38 52.57 4.60L52.57 4.60L52.57 4.60Q52.58 4.82 52.57 4.94L52.57 4.94L52.57 4.94Q52.54 5.26 52.53 5.54L52.53 5.54L52.53 5.54Q52.53 5.82 52.50 6.19L52.50 6.19L52.50 6.19Q52.49 6.38 52.48 6.57L52.48 6.57L52.48 6.57Q52.47 6.76 52.46 6.96L52.46 6.96L52.46 6.96Q52.91 6.93 53.42 6.93L53.42 6.93L53.42 6.93Q53.94 6.93 54.31 6.99L54.31 6.99L54.31 6.99Q54.36 7.04 54.38 7.21L54.38 7.21L54.38 7.21Q54.40 7.38 54.40 7.56L54.40 7.56L54.40 7.56Q54.40 7.74 54.38 7.89L54.38 7.89L54.38 7.89Q54.36 8.04 54.35 8.05Z"></path></g><!----><!----></svg>